<?xml version="1.0" encoding="utf-8"?>
<!-- Generator: Adobe Illustrator 25.0.0, SVG Export Plug-In . SVG Version: 6.00 Build 0)  -->
<svg version="1.1" xmlns="http://www.w3.org/2000/svg" xmlns:xlink="http://www.w3.org/1999/xlink" x="0px" y="0px"
	 viewBox="0 0 30 30" style="enable-background:new 0 0 30 30;" xml:space="preserve">
<style type="text/css">
	.st0{fill:url(#SVGID_1_);}
	.st1{fill:#FFFFFF;}
</style>
<g id="图层_3">
	<linearGradient id="SVGID_1_" gradientUnits="userSpaceOnUse" x1="28.5416" y1="1.4584" x2="1.4584" y2="28.5416">
		<stop  offset="0" style="stop-color:#3C3C3C"/>
		<stop  offset="0" style="stop-color:#339933"/>
		<stop  offset="1" style="stop-color:#006600"/>
	</linearGradient>
	<path class="st0" d="M25,30H5c-2.7,0-5-2.2-5-5V5c0-2.7,2.2-5,5-5h20c2.7,0,5,2.2,5,5v20C30,27.8,27.8,30,25,30z"/>
	<g>
		<g>
			<path class="st1" d="M4,17.5c0.5-0.4,1-0.7,1.5-1.1c0,0-0.1,0.1-0.1,0.1c0.5-0.3,1-0.6,1.6-0.9c-0.1-0.1-0.2-0.2-0.3-0.3
				c0.1,0.3,0.2,0.6,0.3,0.9c0.1,0.2,0.2,0.5,0.4,0.7c0.4,0.3,0.9-0.5,1.1-0.7c0.4-0.5,0.6-1,0.9-1.5c0-0.1,0.1-0.2,0.1-0.3
				c0,0,0.1-0.2,0-0.1c0.1-0.2,0.2-0.4,0.4-0.5c0,0-0.1,0.1-0.1,0.1c0.4-0.2,0.7-0.1,1,0.1c0,0-0.1-0.1-0.1-0.1
				c0.7,0.4,1.2,1.1,1.6,1.8c0.5,0.9,0.7-0.6,0.7-0.9c0.1-0.6,0.1-1.3,0-1.9c0-0.5-0.1-1-0.3-1.5c-0.3-0.7-0.7-1.3-1.3-1.9
				c-0.5-0.5-1.1-1-1.8-0.6c-0.5,0.3-0.7,1-0.9,1.5c-0.3,0.6-0.8,1.2-1.3,1.7c0,0,0.1-0.1,0.1-0.1c-0.1,0-0.1,0-0.2,0
				c0,0,0.1,0.1,0.1,0.1c-0.1-0.1-0.1,0,0,0c-0.1-0.1-0.1-0.3-0.1-0.4c-0.1-0.2-0.2-0.5-0.3-0.7c0-0.2-0.1-0.3-0.3-0.3
				c-1.1,0.6-2.2,1.3-3.2,2.1c-0.2,0.2-0.3,0.9-0.3,1.1c-0.1,0.6-0.1,1.3,0,1.9C3.3,16,3.5,17.9,4,17.5L4,17.5z"/>
		</g>
	</g>
</g>
<g id="Layer_1">
	<g>
		<g>
			<g>
				<g>
					<path class="st1" d="M21.5,19.2v3.9c0,0.4-0.2,0.8-0.6,1.2s-0.8,0.6-1.3,0.6s-0.9-0.1-1.3-0.6c-0.4-0.4-0.5-0.8-0.5-1.3
						c0-0.5,0.1-0.9,0.5-1.3c0.4-0.4,0.8-0.5,1.3-0.5c0.3,0,0.6,0.1,0.8,0.2v-3.7h3v1.4H21.5z"/>
				</g>
			</g>
		</g>
	</g>
	<g>
		<g>
			<g>
				<path class="st1" d="M15.4,27.9c-3.6,0-6.7-1.3-9.2-3.8c-2.5-2.5-3.8-5.6-3.8-9.2c0-3.6,1.3-6.7,3.8-9.2
					c2.5-2.5,5.6-3.8,9.2-3.8c0,0,0,0,0,0c3.6,0,6.7,1.3,9.2,3.8c2.5,2.5,3.8,5.6,3.8,9.2c0,3.6-1.3,6.7-3.8,9.2
					C22.1,26.6,19,27.9,15.4,27.9z M15.4,2.9c-3.3,0-6.2,1.2-8.5,3.5c-2.3,2.3-3.5,5.2-3.5,8.5c0,3.3,1.2,6.1,3.5,8.5
					c2.3,2.3,5.2,3.5,8.5,3.5c3.3,0,6.1-1.2,8.5-3.5c2.3-2.3,3.5-5.2,3.5-8.5c0-3.3-1.2-6.2-3.5-8.5C21.6,4.1,18.7,2.9,15.4,2.9z"/>
			</g>
			<g>
				<path class="st1" d="M15.4,18.4c-1,0-1.8-0.3-2.5-1c0,0,0,0-0.1-0.1c-0.7-0.7-1-1.5-1-2.5c0-1,0.4-1.8,1-2.5
					c0.6-0.7,1.5-1,2.5-1c1,0,1.8,0.3,2.5,1c0.7,0.7,1.1,1.5,1.1,2.5c0,1-0.3,1.8-1,2.5C17.2,18.1,16.4,18.4,15.4,18.4z M15.4,13.4
					c-0.4,0-0.8,0.1-1.1,0.4c-0.3,0.3-0.5,0.7-0.5,1.1c0,0.5,0.1,0.8,0.4,1.1c0.3,0.3,0.7,0.4,1.1,0.4c0.4,0,0.8-0.1,1.1-0.5
					c0.3-0.3,0.4-0.6,0.4-1.1c0-0.4-0.1-0.7-0.4-1c0,0,0,0,0,0C16.2,13.5,15.8,13.4,15.4,13.4z"/>
			</g>
		</g>
	</g>
	<path class="st1" d="M25.9,16.1c-0.3,0-0.5-0.2-0.5-0.5c0-2.5-0.9-4.6-2.6-6.4l-0.1-0.1c-1.7-1.7-3.9-2.6-6.3-2.6
		c-0.3,0-0.5-0.2-0.5-0.5c0-0.3,0.2-0.5,0.5-0.5c0,0,0,0,0,0c2.7,0,5.1,1,7,2.9l0,0c1.9,1.9,2.9,4.3,2.9,7.1
		C26.4,15.9,26.2,16.1,25.9,16.1z"/>
</g>
<g id="图层_2">
</g>
</svg>
